<svg width="18" height="12" viewBox="0 0 18 12" fill="none" xmlns="http://www.w3.org/2000/svg">
<path d="M7.26331 5.02956C7.26331 5.02956 8.9664 4.90476 8.9664 2.93349C8.9664 0.962083 7.57305 0 5.80808 0H0.000244141V11.0165H5.80808C5.80808 11.0165 9.35355 11.127 9.35355 7.76494C9.35355 7.76497 9.50813 5.02956 7.26331 5.02956V5.02956ZM5.39004 1.95806H5.80808C5.80808 1.95806 6.59754 1.95806 6.59754 3.10428C6.59754 4.25036 6.13325 4.41652 5.60663 4.41652H2.55925V1.95806H5.39004V1.95806ZM5.64396 9.05851H2.55925V6.11449H5.80808C5.80808 6.11449 6.98473 6.09926 6.98473 7.62742C6.98473 8.91599 6.10589 9.04878 5.64396 9.05851V9.05851ZM14.0821 2.80292C9.78988 2.80292 9.79368 7.0358 9.79368 7.0358C9.79368 7.0358 9.49918 11.2469 14.0821 11.2469C14.0821 11.2469 17.9011 11.4623 17.9011 8.31748H15.937C15.937 8.31748 16.0025 9.50177 14.1476 9.50177C14.1476 9.50177 12.1832 9.63171 12.1832 7.58514H17.9666C17.9666 7.58511 18.5994 2.80292 14.0821 2.80292ZM12.1616 6.11449C12.1616 6.11449 12.4014 4.41649 14.1257 4.41649C15.8496 4.41649 15.828 6.11449 15.828 6.11449H12.1616ZM16.2855 2.00561H11.6808V0.649013H16.2855V2.00561Z" fill="#A53DFF"/>
</svg>
