<svg width="18" height="18" viewBox="0 0 18 18" fill="none" xmlns="http://www.w3.org/2000/svg">
<path d="M0 2.09091C0 1.48483 0.202708 0.984835 0.608108 0.590908C1.01351 0.196963 1.54055 0 2.18919 0C2.82626 0 3.34169 0.193927 3.73552 0.581817C4.14092 0.981817 4.34363 1.50302 4.34363 2.14545C4.34363 2.72727 4.14672 3.2121 3.7529 3.59999C3.3475 3.99999 2.81467 4.19999 2.15444 4.19999H2.13707C1.49999 4.19999 0.984562 3.99999 0.590734 3.59999C0.196905 3.19999 0 2.69696 0 2.09091ZM0.225869 18V5.85454H4.08301V18H0.225869ZM6.22008 18H10.0772V11.2182C10.0772 10.7939 10.1236 10.4666 10.2162 10.2363C10.3784 9.82422 10.6245 9.47573 10.9546 9.19089C11.2847 8.90604 11.6988 8.76362 12.1969 8.76362C13.4942 8.76362 14.1429 9.67877 14.1429 11.5091V18H18V11.0363C18 9.2424 17.5946 7.88181 16.7838 6.95453C15.973 6.02726 14.9016 5.56363 13.5695 5.56363C12.0753 5.56363 10.9112 6.23635 10.0772 7.58181V7.61817H10.0598L10.0772 7.58181V5.85454H6.22008C6.24324 6.24241 6.25483 7.44846 6.25483 9.47271C6.25483 11.4969 6.24324 14.3394 6.22008 18Z" fill="#A53DFF"/>
</svg>
